<?xml version="1.0" standalone="no"?>
<!DOCTYPE svg PUBLIC "-//W3C//DTD SVG 20010904//EN"
 "http://www.w3.org/TR/2001/REC-SVG-20010904/DTD/svg10.dtd">
<svg version="1.0" xmlns="http://www.w3.org/2000/svg"
 width="315.000000pt" height="315.000000pt" viewBox="0 0 315.000000 315.000000"
 preserveAspectRatio="xMidYMid meet">
<metadata>
Created by potrace 1.11, written by Peter Selinger 2001-2013
</metadata>
<g transform="translate(0.000000,315.000000) scale(0.100000,-0.100000)"
fill="#000000" stroke="none">
<path d="M1049 2829 c-173 -40 -491 -272 -831 -605 -118 -116 -138 -149 -138
-222 0 -72 48 -613 66 -745 18 -136 63 -365 75 -389 15 -28 84 -63 294 -149
240 -98 397 -158 650 -249 105 -37 238 -89 297 -114 154 -67 154 -67 295 58
65 57 163 145 218 195 55 51 182 162 283 248 101 85 182 157 180 158 -2 2 -57
25 -123 51 -155 62 -168 75 -188 189 -28 152 -42 359 -27 395 17 41 171 186
265 249 42 28 97 56 121 62 44 11 44 12 38 48 -11 68 -76 326 -95 377 -26 69
8 55 -714 295 -214 71 -417 136 -450 144 -66 16 -159 18 -216 4z m235 -287
c38 -22 66 -61 69 -94 3 -40 -14 -38 -28 2 -22 66 -107 90 -183 51 -41 -21
-60 -49 -71 -102 -9 -44 -35 -45 -39 -2 -3 34 24 98 55 125 53 48 133 56 197
20z m645 -31 c24 -5 47 -14 51 -21 4 -7 -1 -46 -12 -89 -27 -107 -26 -107 -41
-92 -7 7 -12 41 -12 84 l0 72 -125 0 c-117 0 -125 -1 -128 -20 -8 -45 -22 -37
-22 12 0 49 2 52 28 56 51 8 217 6 261 -2z m-1183 -33 c63 -70 68 -78 56 -90
-9 -9 -20 -4 -45 20 -18 18 -36 32 -40 32 -15 0 -147 -283 -147 -315 0 -18 25
-150 55 -293 52 -247 55 -264 41 -297 -14 -34 -29 -44 -40 -27 -3 5 -30 153
-61 330 l-56 322 98 175 c54 96 100 175 103 175 3 0 19 -15 36 -32z m484 -77
c0 -5 -11 -16 -25 -25 -28 -18 -33 -53 -10 -62 16 -6 29 -2 57 18 14 10 20 10
30 0 9 -9 7 -17 -12 -37 -33 -35 -85 -31 -113 7 -18 24 -18 30 -7 58 7 17 20
35 29 40 20 12 51 13 51 1z m591 -1 c28 -16 23 -29 -11 -28 -17 1 -36 -4 -42
-10 -9 -9 -1 -12 34 -12 47 0 69 -13 50 -32 -6 -6 -35 -7 -76 -3 -76 8 -82 20
-37 66 31 31 51 35 82 19z m-392 -38 c69 -43 73 -43 131 -6 50 32 70 35 70 13
0 -6 -24 -32 -52 -59 l-53 -48 -5 -355 c-5 -330 -6 -356 -24 -376 -10 -11 -23
-18 -28 -14 -10 5 -5 381 8 632 l6 113 -61 57 c-34 31 -61 60 -61 64 0 14 23
7 69 -21z m-549 -52 c23 -27 47 -50 53 -50 6 0 32 18 59 41 39 33 49 37 54 24
4 -10 -11 -34 -45 -70 -28 -29 -51 -57 -51 -60 0 -28 63 -549 71 -583 7 -33 6
-49 -6 -73 -9 -17 -22 -28 -28 -26 -16 5 -22 52 -52 395 -14 162 -30 304 -37
315 -6 12 -26 42 -45 66 -32 43 -42 71 -24 71 5 0 28 -22 51 -50z m1165 -79
l29 -61 -17 -107 c-10 -60 -29 -195 -42 -301 -14 -107 -30 -202 -35 -213 -18
-33 -33 -22 -27 19 17 101 57 480 60 549 2 73 0 82 -25 116 -33 42 -34 53 -11
66 24 13 34 3 68 -68z m-1250 -101 c8 -25 -1 -40 -24 -40 -18 0 -35 35 -25 52
10 16 43 8 49 -12z m425 -19 c0 -23 -5 -30 -25 -33 -30 -6 -35 -2 -35 29 0 15
8 27 23 32 29 11 37 6 37 -28z m64 31 c10 -17 -7 -52 -25 -52 -22 0 -34 22
-25 45 6 16 41 21 50 7z m-556 -34 c-2 -25 -8 -34 -24 -36 -16 -2 -23 3 -26
22 -6 29 8 46 35 46 15 0 18 -6 15 -32z m1040 0 c-2 -23 -9 -34 -22 -36 -26
-5 -38 11 -30 42 4 19 13 26 31 26 21 0 24 -4 21 -32z m72 18 c0 -28 -12 -46
-31 -46 -14 0 -19 7 -19 30 0 25 4 30 25 30 15 0 25 -6 25 -14z m-1032 -83 c5
-49 -37 -54 -52 -6 -5 15 -2 25 11 32 26 15 38 8 41 -26z m412 -13 c0 -27 -22
-46 -41 -34 -17 10 -10 62 9 67 25 5 32 -1 32 -33z m68 8 c-2 -25 -8 -33 -23
-33 -15 0 -21 8 -23 33 -3 29 -1 32 23 32 24 0 26 -3 23 -32z m-550 -10 c-2
-25 -8 -34 -25 -36 -20 -3 -23 1 -23 32 0 32 3 36 26 36 23 0 25 -3 22 -32z
m1032 14 c0 -10 -6 -27 -14 -37 -19 -27 -46 -13 -46 25 0 27 3 30 30 30 22 0
30 -5 30 -18z m61 -12 c-6 -49 -51 -48 -51 2 0 26 3 29 28 26 22 -2 26 -7 23
-28z m-606 -148 c-13 -52 -55 -58 -55 -8 0 28 4 35 23 38 32 6 39 -1 32 -30z
m65 9 c0 -20 -6 -30 -19 -34 -24 -6 -31 0 -31 28 0 26 8 35 32 35 13 0 18 -8
18 -29z m458 -13 c-2 -28 -8 -34 -30 -36 -21 -2 -28 1 -28 13 0 28 20 55 41
55 17 0 20 -5 17 -32z m72 3 c0 -20 -19 -41 -37 -41 -17 0 -17 57 0 63 19 7
37 -4 37 -22z m-986 3 c10 -25 7 -33 -14 -44 -17 -9 -22 -7 -30 15 -6 15 -8
31 -4 36 9 15 41 10 48 -7z m-64 -28 c0 -28 -4 -34 -25 -38 -23 -5 -25 -2 -25
28 0 18 6 35 13 37 29 12 37 6 37 -27z m526 -30 c8 -21 -15 -58 -34 -54 -18 3
-27 30 -18 54 7 18 45 18 52 0z m-66 -21 c0 -25 -32 -51 -50 -40 -6 3 -10 19
-10 36 0 26 3 29 30 29 25 0 30 -4 30 -25z m515 14 c4 -5 4 -21 1 -35 -5 -17
-13 -24 -31 -24 -21 0 -25 5 -25 28 0 16 3 32 7 35 10 11 41 8 48 -4z m69 2
c11 -18 -13 -63 -31 -59 -19 3 -28 30 -19 54 6 16 42 19 50 5z m-964 -31 c0
-16 -2 -30 -4 -30 -2 0 -11 -3 -20 -6 -11 -4 -19 2 -26 21 -13 33 -6 45 26 45
20 0 24 -5 24 -30z m-68 -10 c5 -36 2 -40 -29 -40 -19 0 -23 5 -23 28 0 33 7
42 31 42 11 0 18 -10 21 -30z m1192 -305 c29 -9 61 -22 72 -31 17 -13 6 -14
-111 -7 -355 22 -995 5 -1287 -33 -102 -13 -138 -11 -138 6 0 9 32 14 260 40
278 31 401 37 793 39 295 1 368 -2 411 -14z m-587 -83 c63 -26 127 -75 172
-132 35 -45 41 -59 41 -101 0 -27 -4 -49 -10 -49 -5 0 -23 28 -38 63 -39 85
-82 131 -158 168 -120 59 -258 38 -361 -54 -43 -39 -87 -113 -98 -164 -3 -17
-13 -38 -22 -45 -15 -12 -16 -8 -10 34 16 119 116 239 235 283 53 20 197 18
249 -3z m-567 -229 c16 -18 30 -40 30 -47 0 -22 -35 -8 -64 25 -15 16 -30 29
-35 29 -4 0 -22 -13 -39 -30 -22 -21 -42 -30 -65 -30 -24 0 -41 8 -62 30 -36
38 -49 38 -92 -1 -51 -45 -66 -22 -16 25 49 46 88 48 128 6 34 -35 60 -38 77
-9 16 26 64 48 89 42 11 -3 32 -21 49 -40z m988 17 c15 -16 34 -30 42 -30 9 0
29 14 45 30 42 43 87 41 131 -6 33 -35 44 -64 24 -64 -5 0 -27 16 -49 35 -21
19 -43 35 -48 35 -5 0 -22 -13 -38 -30 -20 -21 -38 -30 -60 -30 -22 0 -40 9
-60 30 -36 38 -54 38 -94 -1 -22 -21 -36 -28 -43 -21 -7 7 3 22 29 46 49 45
85 47 121 6z m-1340 -176 c23 -16 30 -44 10 -44 -6 0 -20 8 -31 17 -18 17 -19
17 -33 -2 -8 -10 -14 -26 -14 -36 0 -21 24 -31 39 -16 8 8 15 7 28 -5 15 -16
14 -18 -10 -29 -33 -15 -83 3 -93 33 -21 68 47 122 104 82z m148 -60 c20 -19
24 -31 19 -52 -16 -64 -75 -82 -120 -37 -29 28 -30 36 -10 75 24 47 72 54 111
14z m542 6 c40 -25 44 -69 8 -105 -22 -22 -28 -23 -63 -14 -21 6 -42 14 -46
18 -4 5 2 33 13 64 24 63 36 69 88 37z m-454 -36 c9 -8 16 -26 16 -39 0 -33
17 -40 24 -10 4 16 13 25 26 25 11 0 20 -4 20 -10 0 -9 -39 -112 -44 -118 -12
-11 -38 17 -47 52 l-12 41 -10 -32 c-11 -35 -14 -38 -36 -24 -11 7 -9 20 9 70
13 33 26 61 31 61 4 0 15 -7 23 -16z m559 0 c3 -4 0 -22 -8 -41 -19 -45 -19
-59 1 -67 11 -4 21 6 35 40 14 32 25 44 37 42 20 -4 18 -28 -6 -78 -20 -41
-59 -51 -98 -25 -28 18 -31 49 -10 100 14 32 34 44 49 29z m-343 -96 c0 -14
-5 -17 -24 -12 -21 5 -25 1 -36 -33 -17 -53 -19 -54 -40 -43 -17 9 -18 13 -4
45 18 44 18 65 -1 65 -14 0 -21 21 -10 32 3 3 30 -4 60 -15 40 -14 55 -25 55
-39z m524 27 c39 -16 44 -42 8 -38 -16 2 -24 -7 -38 -42 -17 -47 -21 -50 -42
-37 -10 7 -9 17 3 52 14 39 14 45 0 52 -8 5 -15 16 -15 25 0 17 21 14 84 -12z
m-469 -36 c10 -15 -35 -119 -51 -119 -24 0 -24 17 -3 74 21 53 40 69 54 45z
m603 -26 c24 -24 25 -28 9 -31 -10 -2 -27 4 -37 13 -16 15 -19 15 -34 0 -31
-31 -11 -76 25 -55 20 13 43 -9 28 -26 -14 -17 -43 -18 -72 -3 -43 23 -49 61
-16 103 27 34 62 34 97 -1z m-544 11 c8 -3 18 -21 22 -40 7 -40 21 -44 30 -9
7 27 12 29 32 16 10 -6 8 -20 -9 -67 -26 -72 -23 -68 -47 -55 -11 6 -23 26
-27 48 l-8 38 -13 -32 c-10 -22 -19 -31 -29 -27 -8 4 -15 10 -15 15 0 11 41
119 45 119 2 0 10 -3 19 -6z m619 -30 c9 -3 13 -13 9 -26 -3 -11 1 -24 9 -29
21 -13 26 -11 32 11 5 21 15 24 34 12 20 -13 -26 -122 -51 -122 -15 0 -17 5
-13 29 5 21 2 31 -9 35 -20 8 -34 -1 -34 -20 0 -13 -31 -20 -42 -8 -5 4 25 94
38 116 6 10 8 10 27 2z m-405 -61 c24 -24 25 -28 9 -31 -10 -2 -26 3 -36 12
-23 21 -28 20 -47 -9 -13 -20 -14 -28 -4 -40 7 -8 19 -15 27 -15 12 0 13 3 3
15 -26 31 11 37 58 9 1 -1 -3 -13 -9 -28 -27 -59 -140 -11 -124 52 16 66 76
82 123 35z m106 -33 c45 -19 61 -40 30 -40 -8 0 -24 5 -35 10 -15 8 -19 7 -19
-4 0 -7 12 -17 26 -20 14 -4 23 -12 21 -19 -5 -13 -9 -13 -44 -2 -35 10 -28
-15 7 -28 31 -12 37 -21 20 -32 -15 -9 -100 25 -100 40 0 13 40 115 46 115 1
0 23 -9 48 -20z m104 -42 c5 -7 13 -29 17 -48 l8 -35 14 33 c13 33 20 37 39
24 9 -5 5 -25 -13 -69 -22 -54 -27 -61 -43 -53 -10 5 -22 27 -28 47 l-9 38
-11 -27 c-11 -26 -31 -36 -44 -22 -9 9 36 124 48 124 6 0 16 -6 22 -12z m166
-60 c57 -21 70 -43 26 -43 -19 0 -26 -9 -38 -43 -13 -41 -37 -56 -48 -29 -2 7
2 30 11 50 19 45 19 44 -5 50 -13 3 -18 10 -14 21 8 20 1 20 68 -6z"/>
<path d="M547 923 c-11 -10 -8 -51 3 -58 16 -10 40 15 40 41 0 17 -6 24 -18
24 -10 0 -22 -3 -25 -7z"/>
<path d="M1111 899 c-14 -41 -14 -39 9 -39 21 0 38 40 25 59 -11 19 -23 12
-34 -20z"/>
<path d="M2452 1865 c-55 -31 -142 -99 -219 -173 -61 -56 -63 -60 -63 -108 0
-68 19 -255 34 -329 11 -57 13 -61 56 -82 48 -24 402 -162 435 -169 15 -4 66
36 199 152 l178 157 -7 71 c-7 79 -50 302 -65 340 -12 33 -15 34 -230 105
-209 69 -252 74 -318 36z m369 -170 c14 -37 18 -63 13 -101 -11 -91 -33 -98
-54 -17 -11 45 -13 47 -26 29 -13 -19 -14 -19 -34 -1 -20 18 -20 18 -14 -42 6
-55 5 -60 -14 -65 -33 -9 -41 4 -53 85 -11 72 -13 77 -33 71 -54 -16 -59 -41
-15 -73 25 -19 30 -28 24 -49 -7 -34 -40 -62 -71 -62 -32 0 -40 18 -10 26 55
14 58 57 5 88 -17 10 -32 16 -33 14 -2 -1 -11 -28 -19 -58 -21 -70 -41 -100
-58 -83 -10 10 -15 9 -25 -5 -11 -16 -13 -16 -32 1 -20 18 -72 109 -91 160
-10 26 -9 27 19 27 25 0 32 -7 54 -52 l24 -53 1 43 c1 59 26 56 44 -5 l14 -48
12 54 c16 74 48 144 63 138 7 -2 13 -14 12 -26 -1 -23 11 -28 22 -10 4 7 22 9
44 6 32 -4 39 -2 43 14 7 26 21 24 61 -11 l34 -31 7 23 c9 28 45 70 58 65 5
-1 18 -25 28 -52z m103 -220 c22 -34 20 -56 -9 -95 -14 -19 -25 -35 -25 -37 0
-2 16 -1 35 3 48 9 45 -8 -7 -46 -46 -33 -73 -38 -98 -15 -16 14 -22 13 -68
-16 -38 -23 -58 -30 -77 -25 -41 10 -40 31 6 96 23 33 39 63 35 67 -3 4 -12 1
-18 -5 -17 -17 -35 -15 -43 5 -7 21 36 63 65 63 19 0 60 -44 60 -64 0 -6 -12
-29 -26 -49 -29 -44 -28 -52 9 -38 18 7 27 7 30 -2 5 -15 4 -16 56 58 27 38
38 61 30 64 -7 2 -18 -4 -24 -13 -11 -14 -13 -14 -29 2 -22 25 -21 29 17 52
42 26 61 25 81 -5z m-294 -65 c25 -46 -5 -143 -54 -175 -29 -19 -72 -11 -86
15 -13 24 -13 95 1 143 8 29 14 37 27 33 9 -3 28 1 42 9 28 15 53 6 70 -25z
m-185 -16 c16 -25 16 -29 1 -58 -9 -17 -23 -41 -32 -54 -17 -22 -17 -22 10
-12 37 14 46 13 40 -5 -9 -22 -86 -65 -117 -65 -43 0 -41 18 7 88 53 78 57 91
18 63 -22 -15 -32 -17 -40 -9 -20 20 -14 37 21 58 44 27 71 25 92 -6z"/>
<path d="M2566 1391 c-37 -41 -61 -151 -33 -151 31 0 67 70 67 130 0 44 -8 49
-34 21z"/>
</g>
</svg>
